<?xml version="1.0" encoding="UTF-8" standalone="no"?>
<!DOCTYPE svg PUBLIC "-//W3C//DTD SVG 1.1//EN"
 "http://www.w3.org/Graphics/SVG/1.1/DTD/svg11.dtd">
<!-- Generated by graphviz version 14.1.4 (20260321.0153)
 -->
<!-- Pages: 1 -->
<svg width="3034pt" height="2174pt"
 viewBox="0.00 0.00 3034.00 2174.00" xmlns="http://www.w3.org/2000/svg" xmlns:xlink="http://www.w3.org/1999/xlink">
<g id="graph0" class="graph" transform="scale(13.8889 13.8889) rotate(0) translate(4 152.5)">
<polygon fill="white" stroke="none" points="-4,4 -4,-152.5 214.44,-152.5 214.44,4 -4,4"/>
<g id="clust1" class="cluster">
<title>cluster_data</title>
<polygon fill="none" stroke="black" points="64,-8 64,-84.5 134,-84.5 134,-8 64,-8"/>
<text xml:space="preserve" text-anchor="middle" x="114.75" y="-15.2" font-family="Times,serif" font-size="14.00">data</text>
</g>
<!-- w -->
<g id="node1" class="node">
<title>w</title>
<ellipse fill="white" stroke="black" cx="27" cy="-130.5" rx="27" ry="18"/>
<text xml:space="preserve" text-anchor="middle" x="27" y="-125.45" font-family="Times,serif" font-size="14.00">w</text>
</g>
<!-- obs -->
<g id="node4" class="node">
<title>obs</title>
<ellipse fill="gray" stroke="black" cx="99" cy="-58.5" rx="27" ry="18"/>
<text xml:space="preserve" text-anchor="middle" x="99" y="-53.45" font-family="Times,serif" font-size="14.00">obs</text>
</g>
<!-- w&#45;&gt;obs -->
<g id="edge1" class="edge">
<title>w&#45;&gt;obs</title>
<path fill="none" stroke="black" d="M41.92,-115C51.77,-105.42 64.86,-92.69 76.03,-81.84"/>
<polygon fill="black" stroke="black" points="78.29,-84.52 83.02,-75.04 73.41,-79.5 78.29,-84.52"/>
</g>
<!-- b -->
<g id="node2" class="node">
<title>b</title>
<ellipse fill="white" stroke="black" cx="99" cy="-130.5" rx="27" ry="18"/>
<text xml:space="preserve" text-anchor="middle" x="99" y="-125.45" font-family="Times,serif" font-size="14.00">b</text>
</g>
<!-- b&#45;&gt;obs -->
<g id="edge2" class="edge">
<title>b&#45;&gt;obs</title>
<path fill="none" stroke="black" d="M99,-112.2C99,-104.91 99,-96.23 99,-88.04"/>
<polygon fill="black" stroke="black" points="102.5,-88.12 99,-78.12 95.5,-88.12 102.5,-88.12"/>
</g>
<!-- sigma -->
<g id="node3" class="node">
<title>sigma</title>
<ellipse fill="white" stroke="black" cx="177" cy="-130.5" rx="33.44" ry="18"/>
<text xml:space="preserve" text-anchor="middle" x="177" y="-125.45" font-family="Times,serif" font-size="14.00">sigma</text>
</g>
<!-- sigma&#45;&gt;obs -->
<g id="edge3" class="edge">
<title>sigma&#45;&gt;obs</title>
<path fill="none" stroke="black" d="M160.46,-114.65C149.59,-104.9 135.19,-91.98 123.07,-81.1"/>
<polygon fill="black" stroke="black" points="125.63,-78.69 115.85,-74.62 120.95,-83.9 125.63,-78.69"/>
</g>
</g>
</svg>
