<?xml version="1.0" encoding="UTF-8" standalone="no"?>
<!DOCTYPE svg PUBLIC "-//W3C//DTD SVG 1.1//EN"
 "http://www.w3.org/Graphics/SVG/1.1/DTD/svg11.dtd">
<!-- Generated by graphviz version 14.1.4 (20260321.0153)
 -->
<!-- Pages: 1 -->
<svg width="4167pt" height="3236pt"
 viewBox="0.00 0.00 4167.00 3236.00" xmlns="http://www.w3.org/2000/svg" xmlns:xlink="http://www.w3.org/1999/xlink">
<g id="graph0" class="graph" transform="scale(13.8889 13.8889) rotate(0) translate(4 229)">
<polygon fill="white" stroke="none" points="-4,4 -4,-229 296,-229 296,4 -4,4"/>
<g id="clust1" class="cluster">
<title>cluster_components</title>
<polygon fill="none" stroke="black" points="138,-84.5 138,-161 284,-161 284,-84.5 138,-84.5"/>
<text xml:space="preserve" text-anchor="middle" x="243" y="-91.7" font-family="Times,serif" font-size="14.00">components</text>
</g>
<g id="clust2" class="cluster">
<title>cluster_data</title>
<polygon fill="none" stroke="black" points="8,-8 8,-161 130,-161 130,-8 8,-8"/>
<text xml:space="preserve" text-anchor="middle" x="110.75" y="-15.2" font-family="Times,serif" font-size="14.00">data</text>
</g>
<!-- weights -->
<g id="node1" class="node">
<title>weights</title>
<ellipse fill="white" stroke="black" cx="69" cy="-207" rx="39.58" ry="18"/>
<text xml:space="preserve" text-anchor="middle" x="69" y="-201.95" font-family="Times,serif" font-size="14.00">weights</text>
</g>
<!-- assignment -->
<g id="node4" class="node">
<title>assignment</title>
<ellipse fill="white" stroke="black" cx="69" cy="-135" rx="52.89" ry="18"/>
<text xml:space="preserve" text-anchor="middle" x="69" y="-129.95" font-family="Times,serif" font-size="14.00">assignment</text>
</g>
<!-- weights&#45;&gt;assignment -->
<g id="edge1" class="edge">
<title>weights&#45;&gt;assignment</title>
<path fill="none" stroke="black" d="M69,-188.7C69,-181.41 69,-172.73 69,-164.54"/>
<polygon fill="black" stroke="black" points="72.5,-164.62 69,-154.62 65.5,-164.62 72.5,-164.62"/>
</g>
<!-- locs -->
<g id="node2" class="node">
<title>locs</title>
<ellipse fill="white" stroke="black" cx="173" cy="-135" rx="27" ry="18"/>
<text xml:space="preserve" text-anchor="middle" x="173" y="-129.95" font-family="Times,serif" font-size="14.00">locs</text>
</g>
<!-- obs -->
<g id="node5" class="node">
<title>obs</title>
<ellipse fill="gray" stroke="black" cx="95" cy="-58.5" rx="27" ry="18"/>
<text xml:space="preserve" text-anchor="middle" x="95" y="-53.45" font-family="Times,serif" font-size="14.00">obs</text>
</g>
<!-- locs&#45;&gt;obs -->
<g id="edge2" class="edge">
<title>locs&#45;&gt;obs</title>
<path fill="none" stroke="black" d="M162.59,-118.16C155.34,-107.84 145.02,-94.5 134,-84.5 131.11,-81.88 127.92,-79.36 124.64,-76.99"/>
<polygon fill="black" stroke="black" points="126.87,-74.27 116.62,-71.6 122.97,-80.08 126.87,-74.27"/>
</g>
<!-- scale -->
<g id="node3" class="node">
<title>scale</title>
<ellipse fill="white" stroke="black" cx="247" cy="-135" rx="29.34" ry="18"/>
<text xml:space="preserve" text-anchor="middle" x="247" y="-129.95" font-family="Times,serif" font-size="14.00">scale</text>
</g>
<!-- scale&#45;&gt;obs -->
<g id="edge3" class="edge">
<title>scale&#45;&gt;obs</title>
<path fill="none" stroke="black" d="M238.55,-117.73C231.97,-106.68 221.8,-92.63 209,-84.5 186.47,-70.19 156.94,-63.98 133.58,-61.33"/>
<polygon fill="black" stroke="black" points="134.12,-57.87 123.84,-60.42 133.46,-64.84 134.12,-57.87"/>
</g>
<!-- assignment&#45;&gt;obs -->
<g id="edge4" class="edge">
<title>assignment&#45;&gt;obs</title>
<path fill="none" stroke="black" d="M75.03,-116.72C78.1,-107.91 81.92,-96.99 85.38,-87.06"/>
<polygon fill="black" stroke="black" points="88.6,-88.45 88.59,-77.86 81.99,-86.15 88.6,-88.45"/>
</g>
</g>
</svg>
